<?xml version="1.0" encoding="UTF-8"?>
<svg width="115px" height="73px" viewBox="0 0 115 73" version="1.1" xmlns="http://www.w3.org/2000/svg" xmlns:xlink="http://www.w3.org/1999/xlink">
    <!-- Generator: Sketch 42 (36781) - http://www.bohemiancoding.com/sketch -->
    <title>Page 1</title>
    <desc>Created with Sketch.</desc>
    <defs>
        <polygon id="path-1" points="114.5425 73 0.0005 73 0.0005 0.0901 114.5425 0.0901 114.5425 73"></polygon>
    </defs>
    <g id="Website" stroke="none" stroke-width="1" fill="none" fill-rule="evenodd">
        <g id="Page-1" transform="translate(0.000000, -1.000000)">
            <g id="Group-3" transform="translate(0.000000, 0.910100)">
                <mask id="mask-2" fill="white">
                    <use xlink:href="#path-1"></use>
                </mask>
                <g id="Clip-2"></g>
                <path d="M57.2715,73.0001 C27.6565,73.0001 0.0005,58.2491 0.0005,36.5441 C0.0005,14.8361 27.6565,0.0901 57.2715,0.0901 C86.8885,0.0901 114.5425,14.8361 114.5425,36.5441 C114.5425,58.2491 86.8885,73.0001 57.2715,73.0001" id="Fill-1" fill="#FFFFFF" mask="url(#mask-2)"></path>
            </g>
            <path d="M57.2715,70.9229 C86.5915,70.9229 111.4325,56.4019 111.4325,37.4539 C111.4325,18.5119 86.5915,3.9919 57.2715,3.9919 C27.9545,3.9919 3.1155,18.5119 3.1155,37.4539 C3.1155,56.4019 27.9545,70.9229 57.2715,70.9229 M57.2715,72.6619 C27.8715,72.6619 1.3715,58.0479 1.3715,37.4539 C1.3715,16.8599 27.8715,2.2499 57.2715,2.2499 C86.6795,2.2499 113.1775,16.8599 113.1775,37.4539 C113.1775,58.0479 86.6795,72.6619 57.2715,72.6619" id="Fill-4" fill="#009F4F"></path>
            <path d="M57.2715,5.9717 C28.2555,5.9717 5.2435,20.2867 5.2435,37.4537 C5.2435,54.6207 28.2555,68.9377 57.2715,68.9377 C86.2905,68.9377 109.3085,54.6207 109.3085,37.4537 C109.3085,20.2867 86.2905,5.9717 57.2715,5.9717 M57.2715,5.0187 C86.2085,5.0187 110.1595,19.3217 110.1595,37.4537 C110.1595,55.5897 86.2085,69.8907 57.2715,69.8907 C28.3465,69.8907 4.3885,55.5897 4.3885,37.4537 C4.3885,19.3217 28.3465,5.0187 57.2715,5.0187" id="Fill-6" fill="#CC382B"></path>
            <path d="M51.543,14.1368 L51.305,14.1368 C50.735,14.1368 50.164,14.3028 49.589,14.6368 C49.522,14.3708 49.485,14.1588 49.485,13.9858 C49.485,13.0718 49.918,12.6128 50.782,12.6128 C50.951,12.6128 51.206,12.6258 51.543,12.6438 C51.887,12.6638 52.142,12.6718 52.311,12.6718 L54.27,12.6718 C54.973,12.6718 55.656,12.5738 56.326,12.3708 L56.334,12.5778 L56.334,12.6308 C56.334,13.0248 56.206,13.3838 55.945,13.7118 C55.69,14.0448 55.379,14.2088 55.012,14.2088 C54.876,14.2088 54.647,14.1968 54.318,14.1718 C54.094,14.1498 53.907,14.1368 53.759,14.1368 L53.628,14.1368 L52.417,20.2418 C52.254,21.0498 52.176,21.6798 52.176,22.1278 C52.176,22.3088 52.214,22.4998 52.3,22.6878 C51.678,22.9528 51.144,23.0808 50.684,23.0808 C50.123,23.0808 49.842,22.8908 49.842,22.5088 C49.842,22.2278 49.925,21.7658 50.087,21.1178 C50.32,20.1878 50.436,19.7058 50.439,19.6808 L51.543,14.1368 Z" id="Fill-8" fill="#231F1F"></path>
            <path d="M58.2764,17.8682 C59.3074,15.7822 60.4014,14.7382 61.5584,14.7382 C62.4044,14.7382 62.8294,15.1682 62.8294,16.0312 C62.8294,16.6332 62.6834,17.5312 62.3964,18.7302 C62.1154,19.9252 61.9744,20.8232 61.9744,21.4252 C61.9744,21.9222 62.0964,22.3282 62.3344,22.6402 C61.8764,22.9372 61.4154,23.0812 60.9644,23.0812 C60.2044,23.0812 59.8234,22.7202 59.8234,21.9922 C59.8234,21.4252 59.9614,20.5402 60.2274,19.3472 C60.5074,18.1462 60.6414,17.3062 60.6414,16.8342 C60.6414,16.6102 60.5764,16.5002 60.4434,16.5002 C60.0684,16.5002 59.4714,17.2922 58.6524,18.8782 C57.8374,20.4702 57.4224,21.6292 57.4224,22.3652 C57.4224,22.5152 57.4574,22.6992 57.5264,22.9152 C57.1184,23.0272 56.7144,23.0812 56.3374,23.0812 C55.6404,23.0812 55.2954,22.8312 55.2954,22.3362 C55.2954,22.0142 55.3654,21.5792 55.5084,21.0242 C55.7194,20.2032 55.8314,19.7622 55.8444,19.7092 L56.6674,15.5572 C56.8414,14.6652 56.9334,13.9882 56.9334,13.5342 C56.9334,13.4012 56.9144,13.2272 56.8654,13.0122 C57.3204,12.7372 57.7654,12.5952 58.2044,12.5952 C58.8284,12.5952 59.1414,12.8622 59.1414,13.3872 C59.1414,13.6762 58.8524,15.1682 58.2764,17.8682" id="Fill-10" fill="#231F1F"></path>
            <path d="M66.0576,18.5557 C67.6516,18.5277 68.4416,17.8497 68.4416,16.5217 C68.4416,15.9557 68.2436,15.6747 67.8466,15.6747 C67.0806,15.6747 66.4906,16.6327 66.0576,18.5557 M65.9486,19.5997 C65.9116,19.9247 65.8946,20.1887 65.8946,20.4097 C65.8946,21.4277 66.3006,21.9387 67.1256,21.9387 C67.8836,21.9387 68.7686,21.5467 69.7656,20.7617 C69.8626,20.9697 69.9146,21.1567 69.9146,21.3187 C69.9146,21.8437 69.5236,22.2867 68.7356,22.6407 C67.9486,22.9927 67.1596,23.1677 66.3726,23.1677 C64.4796,23.1677 63.5316,22.3447 63.5316,20.6877 C63.5316,19.1337 64.0396,17.7267 65.0506,16.4687 C66.0636,15.2067 67.2796,14.5747 68.7016,14.5747 C69.8706,14.5747 70.4536,15.0707 70.4536,16.0627 C70.4536,17.1127 70.0236,17.9607 69.1616,18.5967 C68.3126,19.2277 67.2386,19.5627 65.9486,19.5997" id="Fill-12" fill="#231F1F"></path>
            <path d="M16.209,50.459 C15.262,49.1 14.98,46.331 14.181,44.781 C12.391,43.945 11.406,43.009 11.406,41.984 C11.406,40.141 14.594,38.589 19.881,37.37 L19.881,39.465 C15.917,40.336 13.743,41.24 13.743,41.984 C13.743,44.081 31.295,47.57 57.691,47.57 C84.082,47.57 101.637,44.081 101.637,41.984 C101.637,41.446 100.49,40.821 98.345,40.184 L97.373,37.84 C100.637,38.734 102.844,39.79 103.644,40.98 L103.688,40.884 L103.644,40.98 C103.859,41.303 103.975,41.637 103.975,41.984 C103.975,42.943 103.107,43.821 101.529,44.621 C100.582,46.209 100.149,49.05 99.168,50.459 C96.719,54.456 80.246,59.534 57.662,59.534 C35.076,59.534 18.667,54.456 16.209,50.459" id="Fill-14" fill="#EC1C24"></path>
            <path d="M28.4336,37.17 L28.4336,40.106 C28.4336,41.415 28.4486,42.115 29.6386,42.318 L29.8106,42.35 L29.8106,43.159 L22.3786,43.159 L22.3786,42.35 L22.5556,42.318 C23.7456,42.115 23.7586,41.415 23.7586,40.106 L23.7586,24.501 C23.7586,23.191 23.7456,22.5 22.5556,22.292 L22.3786,22.261 L22.3786,21.449 L32.8606,21.449 C38.3936,21.449 40.9646,24.259 40.9646,27.772 C40.9646,33.228 35.6026,35.05 31.2276,36.352 L28.4336,37.17 Z M28.4336,34.193 C29.1186,33.956 29.8906,33.691 30.6676,33.381 C31.5546,33.034 32.4466,32.628 33.2526,32.144 C34.8626,31.172 36.0356,29.914 36.0356,28.191 C36.0356,25.728 33.9026,24.431 31.4546,24.431 L28.4336,24.431 L28.4336,34.193 Z" id="Fill-16" fill="#231F1F"></path>
            <path d="M46.3945,40.8213 C46.3945,41.8463 46.4065,42.3403 47.2875,42.4903 L47.4565,42.5213 L47.4565,43.2353 L41.6025,43.2353 L41.6025,42.5213 L41.7745,42.4903 C42.6525,42.3403 42.6695,41.8463 42.6695,40.8213 L42.6695,28.7093 C42.6695,27.6913 42.6525,27.1933 41.7745,27.0403 L41.6025,27.0133 L41.6025,26.2973 L47.4565,26.2973 L47.4565,27.0133 L47.2875,27.0403 C46.4065,27.1933 46.3945,27.6913 46.3945,28.7093 L46.3945,40.8213 Z" id="Fill-18" fill="#231F1F"></path>
            <path d="M62.3477,28.4248 L53.2617,40.6918 L58.2357,40.6918 C60.2897,40.6918 61.3607,40.3398 61.6997,38.3868 L61.7347,38.2148 L62.8047,38.2148 L62.8047,43.2378 L48.4877,43.2378 L48.4877,40.9718 L57.5427,28.8368 L52.7617,28.8368 C51.3277,28.8368 50.6207,29.1368 50.4947,30.5248 L50.4717,30.7118 L49.3887,30.7118 L49.3887,26.2948 L62.3477,26.2948 L62.3477,28.4248 Z" id="Fill-20" fill="#231F1F"></path>
            <path d="M77.6992,28.4248 L68.6212,40.6918 L73.5922,40.6918 C75.6512,40.6918 76.7212,40.3398 77.0582,38.3868 L77.0872,38.2148 L78.1622,38.2148 L78.1622,43.2378 L63.8452,43.2378 L63.8452,40.9718 L72.8992,28.8368 L68.1262,28.8368 C66.6872,28.8368 65.9822,29.1368 65.8522,30.5248 L65.8362,30.7118 L64.7462,30.7118 L64.7462,26.2948 L77.6992,26.2948 L77.6992,28.4248 Z" id="Fill-22" fill="#231F1F"></path>
            <path d="M88.9414,34.8155 L86.9714,30.0845 L85.0874,34.8155 L88.9414,34.8155 Z M95.4984,41.4145 C95.7454,42.0275 95.9014,42.4155 96.5234,42.4905 L96.6994,42.5105 L96.6994,43.2375 L90.5994,43.2375 L90.5994,42.5195 L90.7814,42.4905 C91.7814,42.3435 91.7324,42.0005 91.3214,41.0605 L89.8884,37.2185 L84.2274,37.2185 L82.9094,41.0585 C82.5464,41.9405 82.5714,42.2615 83.5194,42.4965 L83.6744,42.5355 L83.6744,43.2375 L78.5014,43.2375 L78.5014,42.5015 L78.6934,42.4885 C79.0524,42.4695 79.3054,42.2655 79.5114,41.9615 C79.6124,41.8075 79.6994,41.6335 79.7814,41.4545 C79.8594,41.2715 79.9294,41.0885 79.9934,40.9305 L85.6604,26.2945 L89.4634,26.2945 L95.4984,41.4145 Z" id="Fill-24" fill="#231F1F"></path>
            <path d="M39.2402,54.0039 C39.2692,54.2529 39.2852,54.4039 39.2772,54.4719 C39.2292,54.8619 38.8292,55.1759 38.0842,55.4099 C37.3392,55.6409 36.6952,55.7219 36.1362,55.6519 C34.7892,55.4879 34.2012,54.6439 34.3862,53.1249 C34.5702,51.6679 35.1492,50.4039 36.1292,49.3339 C37.1092,48.2639 38.2112,47.7999 39.4232,47.9489 C40.5112,48.0839 41.0192,48.4219 40.9612,48.9639 C40.9232,49.2699 40.5942,49.6089 39.9852,49.9899 C39.8362,49.1809 39.4692,48.7399 38.8962,48.6699 C38.2612,48.5939 37.6952,49.0059 37.1882,49.9059 C36.6912,50.8059 36.3762,51.7929 36.2452,52.8629 C36.1072,53.9769 36.3992,54.5739 37.1172,54.6649 C37.6832,54.7349 38.3882,54.5189 39.2402,54.0039" id="Fill-26" fill="#FFFFFF"></path>
            <path d="M43.0313,55.2588 C43.4533,55.2998 43.8363,54.9438 44.1673,54.1988 C44.5013,53.4558 44.7063,52.6988 44.7763,51.9278 C44.8403,51.1468 44.6413,50.7278 44.1723,50.6908 C43.7423,50.6498 43.3493,50.9958 43.0113,51.7308 C42.6703,52.4648 42.4723,53.2278 42.4023,54.0188 C42.3363,54.8008 42.5433,55.2188 43.0313,55.2588 M42.6313,56.1568 C41.9923,56.0998 41.4923,55.8578 41.1363,55.4228 C40.7843,54.9878 40.6353,54.4388 40.6933,53.7808 C40.7873,52.7118 41.2153,51.7558 41.9803,50.9178 C42.7533,50.0788 43.6183,49.7058 44.5793,49.7898 C45.1993,49.8398 45.6913,50.0948 46.0433,50.5338 C46.3943,50.9718 46.5393,51.5138 46.4823,52.1558 C46.3943,53.2148 45.9613,54.1678 45.1913,55.0118 C44.4273,55.8578 43.5713,56.2358 42.6313,56.1568" id="Fill-28" fill="#FFFFFF"></path>
            <path d="M51.8242,56.3868 C51.5312,56.4488 51.2422,56.4798 50.9712,56.4668 C50.5232,56.4408 50.3132,56.2578 50.3342,55.9048 C50.3422,55.7688 50.4022,55.4828 50.5182,55.0448 C51.0542,53.1498 51.3212,52.0428 51.3422,51.7058 C51.3472,51.5968 51.3102,51.5388 51.2352,51.5338 C51.0422,51.5248 50.5732,52.0898 49.8392,53.2278 C49.1022,54.3638 48.7202,55.2188 48.6912,55.7948 C48.6832,55.9218 48.7032,56.0718 48.7462,56.2248 C48.4402,56.2928 48.1602,56.3188 47.9062,56.3058 C47.4232,56.2818 47.1872,56.0868 47.2072,55.7148 C47.2212,55.5238 47.2682,55.2838 47.3472,54.9998 C48.0042,52.8498 48.3472,51.4418 48.3842,50.7798 C48.3912,50.6248 48.3682,50.4748 48.3132,50.3248 C48.7152,50.2088 49.0482,50.1568 49.3162,50.1678 C49.7422,50.1908 49.9432,50.3888 49.9232,50.7608 C49.9092,50.9958 49.8492,51.2968 49.7482,51.6588 L49.4852,52.5468 C50.4922,50.9748 51.3682,50.2148 52.1122,50.2528 C52.6442,50.2778 52.8962,50.6158 52.8602,51.2528 C52.8522,51.4308 52.8072,51.6718 52.7222,51.9808 C52.6382,52.3218 52.5862,52.5638 52.5702,52.7088 C53.5792,51.1408 54.4622,50.3788 55.2242,50.4178 C55.7652,50.4438 56.0192,50.7538 55.9882,51.3528 C55.9792,51.5268 55.9122,51.8678 55.7822,52.3708 C55.3472,54.0428 55.1172,55.0708 55.0962,55.4528 C55.0792,55.8208 55.1442,56.1248 55.3132,56.3678 C54.9642,56.5668 54.6332,56.6618 54.3262,56.6438 C53.8012,56.6168 53.5502,56.3308 53.5792,55.7968 C53.5972,55.3598 53.6952,54.8308 53.8572,54.1988 C54.2262,52.7868 54.4072,52.0088 54.4172,51.8678 C54.4232,51.7558 54.3872,51.7028 54.3132,51.6968 C54.1182,51.6878 53.6522,52.2508 52.9182,53.3908 C52.1822,54.5278 51.8042,55.3808 51.7742,55.9558 C51.7652,56.0868 51.7822,56.2278 51.8242,56.3868" id="Fill-30" fill="#FFFFFF"></path>
            <path d="M58.8701,54.9532 C59.2221,55.4072 59.5661,55.6342 59.8991,55.6252 C60.2791,55.6182 60.6041,55.2272 60.8651,54.4562 C61.1331,53.6802 61.2541,52.9692 61.2431,52.3282 C61.2351,51.8932 61.1341,51.6782 60.9451,51.6812 C60.7731,51.6832 60.4331,52.1152 59.9221,52.9742 C59.4121,53.8342 59.0571,54.4932 58.8701,54.9532 M58.5621,57.8622 C58.1831,58.0372 57.8481,58.1212 57.5651,58.1252 C57.1181,58.1342 56.8911,57.9492 56.8831,57.5662 C56.8791,57.4122 56.9061,57.2172 56.9611,56.9842 C57.0451,56.6042 57.0901,56.4092 57.0901,56.4092 L57.7791,52.6182 C57.8961,51.9592 57.9561,51.4562 57.9481,51.1072 C57.9481,50.9872 57.9231,50.8452 57.8731,50.6902 C58.2481,50.5272 58.5861,50.4432 58.8791,50.4402 C59.3361,50.4312 59.5711,50.6212 59.5741,51.0092 C59.5811,51.2342 59.4761,51.8342 59.2621,52.7972 C60.1291,51.1642 60.9451,50.3372 61.6871,50.3242 C62.4621,50.3152 62.8651,50.8602 62.8861,51.9692 C62.9021,53.0182 62.6101,54.0422 62.0031,55.0402 C61.3911,56.0432 60.6541,56.5482 59.7871,56.5632 C59.3601,56.5712 58.9741,56.4692 58.6311,56.2512 C58.5501,56.7462 58.5091,57.1052 58.5161,57.3362 C58.5181,57.4652 58.5341,57.6412 58.5621,57.8622" id="Fill-32" fill="#FFFFFF"></path>
            <path d="M67.7949,51.7432 C67.4229,51.3032 67.0659,51.0902 66.7329,51.1102 C66.3499,51.1292 66.0419,51.5482 65.8049,52.3712 C65.5659,53.1932 65.4589,53.9282 65.4949,54.5712 C65.5109,55.0062 65.6249,55.2192 65.8239,55.2092 C66.0009,55.1992 66.3109,54.7842 66.7499,53.9702 C67.1909,53.1492 67.5369,52.4122 67.7949,51.7432 M67.4569,54.0312 C66.6489,55.6932 65.8729,56.5482 65.1249,56.5862 C64.3419,56.6312 63.9249,56.0992 63.8619,55.0062 C63.8109,53.9282 64.0659,52.8712 64.6369,51.8152 C65.2169,50.7642 65.9409,50.2152 66.8179,50.1652 C67.2509,50.1462 67.6389,50.2342 67.9839,50.4372 C68.1359,50.2462 68.3549,50.1462 68.6389,50.1262 C68.9809,50.1122 69.3179,50.1752 69.6559,50.3152 C69.4689,50.7542 69.3049,51.4742 69.1589,52.4772 C69.0199,53.4842 68.9639,54.2772 68.9959,54.8712 C69.0189,55.2902 69.1099,55.6592 69.2819,55.9722 C69.0269,56.2122 68.7349,56.3372 68.3989,56.3522 C67.7739,56.3872 67.4429,56.0582 67.4059,55.3712 C67.3909,55.0122 67.4059,54.5682 67.4569,54.0312" id="Fill-34" fill="#FFFFFF"></path>
            <path d="M72.8291,52.2452 C73.4871,50.5652 74.2231,49.6872 75.0431,49.6202 C75.6721,49.5582 76.0111,49.8492 76.0681,50.4802 C76.1021,50.9332 76.0551,51.6212 75.9141,52.5472 C75.7791,53.4722 75.7271,54.1652 75.7681,54.6152 C75.8011,54.9772 75.9151,55.2682 76.1131,55.4822 C75.7921,55.7272 75.4671,55.8682 75.1331,55.8962 C74.5781,55.9462 74.2761,55.6992 74.2271,55.1642 C74.1931,54.7692 74.2141,54.2712 74.2761,53.6812 C74.4531,52.1782 74.5261,51.3492 74.5161,51.2012 C74.5001,51.0402 74.4401,50.9652 74.3441,50.9722 C74.1491,50.9932 73.7811,51.6022 73.2291,52.8152 C72.6851,54.0312 72.4411,54.9592 72.4981,55.5942 C72.5041,55.7062 72.5401,55.8402 72.6041,55.9902 C72.3101,56.0992 72.0191,56.1652 71.7421,56.1902 C71.2321,56.2342 70.9651,56.0712 70.9301,55.7092 C70.9181,55.5182 70.9301,55.2772 70.9771,54.9772 L71.0941,54.2562 C71.3571,52.4622 71.4641,51.2682 71.4101,50.6722 C71.3961,50.5062 71.3541,50.3572 71.2811,50.2152 C71.6621,50.0432 71.9961,49.9462 72.2851,49.9182 C72.7381,49.8812 72.9751,50.0482 73.0141,50.4232 C73.0291,50.6282 72.9691,51.2402 72.8291,52.2452" id="Fill-36" fill="#FFFFFF"></path>
            <path d="M77.125,49.8057 C77.493,49.4467 77.895,49.2407 78.328,49.1777 C78.719,49.1247 79.012,49.4277 79.211,50.0967 C79.484,51.3217 79.751,52.3937 80.017,53.3107 L80.813,51.3677 C81.154,50.4437 81.298,49.7777 81.24,49.3597 C81.225,49.2377 81.175,49.0687 81.084,48.8527 C82.012,48.7557 82.504,48.9097 82.566,49.3207 C82.639,49.8217 82.1,51.1937 80.951,53.4307 C79.803,55.6647 78.834,56.8397 78.048,56.9497 C77.573,57.0187 77.308,56.8867 77.262,56.5587 C77.229,56.3217 77.321,56.0057 77.534,55.6057 C77.72,55.7057 77.904,55.7427 78.086,55.7147 C78.527,55.6597 78.859,55.3217 79.084,54.7147 C78.232,51.9137 77.579,50.2777 77.125,49.8057" id="Fill-38" fill="#FFFFFF"></path>
        </g>
    </g>
</svg>